<svg xmlns="http://www.w3.org/2000/svg" version="1.1" xmlns:xlink="http://www.w3.org/1999/xlink" xmlns:svgjs="http://svgjs.com/svgjs" width="1441" height="700" preserveAspectRatio="none" viewBox="0 0 1441 700"><g mask="url(&quot;#SvgjsMask1584&quot;)" fill="none"><path d="M-43.02 489.45L-43.02 489.45" stroke="rgba(135, 25, 209, 1)" stroke-width="1.5"></path><path d="M-43.02 489.45L110.43 524.11" stroke="rgba(135, 25, 209, 1)" stroke-width="1.5"></path><path d="M-43.02 489.45L46.49 638.52" stroke="rgba(135, 25, 209, 1)" stroke-width="1.5"></path><path d="M-43.02 489.45L-39.61 678.28" stroke="rgba(135, 25, 209, 1)" stroke-width="1.5"></path><path d="M-43.02 489.45L232.74 557.36" stroke="rgba(135, 25, 209, 1)" stroke-width="1.5"></path><path d="M-43.02 489.45L-45.42 794.56" stroke="rgba(135, 25, 209, 1)" stroke-width="1.5"></path><path d="M-39.61 678.28L-39.61 678.28" stroke="rgba(135, 25, 209, 1)" stroke-width="1.5"></path><path d="M-39.61 678.28L46.49 638.52" stroke="rgba(135, 25, 209, 1)" stroke-width="1.5"></path><path d="M-45.42 794.56L-45.42 794.56" stroke="rgba(135, 25, 209, 1)" stroke-width="1.5"></path><path d="M-45.42 794.56L-39.61 678.28" stroke="rgba(135, 25, 209, 1)" stroke-width="1.5"></path><path d="M-45.42 794.56L88.71 854.89" stroke="rgba(135, 25, 209, 1)" stroke-width="1.5"></path><path d="M-45.42 794.56L46.49 638.52" stroke="rgba(135, 25, 209, 1)" stroke-width="1.5"></path><path d="M110.43 524.11L110.43 524.11" stroke="rgba(135, 25, 209, 1)" stroke-width="1.5"></path><path d="M110.43 524.11L232.74 557.36" stroke="rgba(135, 25, 209, 1)" stroke-width="1.5"></path><path d="M110.43 524.11L46.49 638.52" stroke="rgba(135, 25, 209, 1)" stroke-width="1.5"></path><path d="M110.43 524.11L239.09 694.13" stroke="rgba(135, 25, 209, 1)" stroke-width="1.5"></path><path d="M46.49 638.52L46.49 638.52" stroke="rgba(135, 25, 209, 1)" stroke-width="1.5"></path><path d="M88.71 854.89L88.71 854.89" stroke="rgba(135, 25, 209, 1)" stroke-width="1.5"></path><path d="M88.71 854.89L230.05 792.43" stroke="rgba(135, 25, 209, 1)" stroke-width="1.5"></path><path d="M88.71 854.89L-39.61 678.28" stroke="rgba(135, 25, 209, 1)" stroke-width="1.5"></path><path d="M232.74 557.36L232.74 557.36" stroke="rgba(135, 25, 209, 1)" stroke-width="1.5"></path><path d="M232.74 557.36L239.09 694.13" stroke="rgba(135, 25, 209, 1)" stroke-width="1.5"></path><path d="M239.09 694.13L239.09 694.13" stroke="rgba(135, 25, 209, 1)" stroke-width="1.5"></path><path d="M239.09 694.13L230.05 792.43" stroke="rgba(135, 25, 209, 1)" stroke-width="1.5"></path><path d="M239.09 694.13L375.23 639.2" stroke="rgba(135, 25, 209, 1)" stroke-width="1.5"></path><path d="M239.09 694.13L46.49 638.52" stroke="rgba(135, 25, 209, 1)" stroke-width="1.5"></path><path d="M239.09 694.13L410.5 825.78" stroke="rgba(135, 25, 209, 1)" stroke-width="1.5"></path><path d="M230.05 792.43L230.05 792.43" stroke="rgba(135, 25, 209, 1)" stroke-width="1.5"></path><path d="M230.05 792.43L410.5 825.78" stroke="rgba(135, 25, 209, 1)" stroke-width="1.5"></path><path d="M412.11 409.86L412.11 409.86" stroke="rgba(135, 25, 209, 1)" stroke-width="1.5"></path><path d="M412.11 409.86L397.18 524.76" stroke="rgba(135, 25, 209, 1)" stroke-width="1.5"></path><path d="M412.11 409.86L541.62 493.97" stroke="rgba(135, 25, 209, 1)" stroke-width="1.5"></path><path d="M412.11 409.86L552.4 337.59" stroke="rgba(135, 25, 209, 1)" stroke-width="1.5"></path><path d="M397.18 524.76L397.18 524.76" stroke="rgba(135, 25, 209, 1)" stroke-width="1.5"></path><path d="M397.18 524.76L375.23 639.2" stroke="rgba(135, 25, 209, 1)" stroke-width="1.5"></path><path d="M397.18 524.76L541.62 493.97" stroke="rgba(135, 25, 209, 1)" stroke-width="1.5"></path><path d="M397.18 524.76L232.74 557.36" stroke="rgba(135, 25, 209, 1)" stroke-width="1.5"></path><path d="M397.18 524.76L550.16 665.68" stroke="rgba(135, 25, 209, 1)" stroke-width="1.5"></path><path d="M397.18 524.76L239.09 694.13" stroke="rgba(135, 25, 209, 1)" stroke-width="1.5"></path><path d="M375.23 639.2L375.23 639.2" stroke="rgba(135, 25, 209, 1)" stroke-width="1.5"></path><path d="M410.5 825.78L410.5 825.78" stroke="rgba(135, 25, 209, 1)" stroke-width="1.5"></path><path d="M410.5 825.78L518.86 826.41" stroke="rgba(135, 25, 209, 1)" stroke-width="1.5"></path><path d="M552.4 337.59L552.4 337.59" stroke="rgba(135, 25, 209, 1)" stroke-width="1.5"></path><path d="M552.4 337.59L688.96 352.1" stroke="rgba(135, 25, 209, 1)" stroke-width="1.5"></path><path d="M552.4 337.59L541.62 493.97" stroke="rgba(135, 25, 209, 1)" stroke-width="1.5"></path><path d="M541.62 493.97L541.62 493.97" stroke="rgba(135, 25, 209, 1)" stroke-width="1.5"></path><path d="M550.16 665.68L550.16 665.68" stroke="rgba(135, 25, 209, 1)" stroke-width="1.5"></path><path d="M550.16 665.68L701.27 641.85" stroke="rgba(135, 25, 209, 1)" stroke-width="1.5"></path><path d="M550.16 665.68L518.86 826.41" stroke="rgba(135, 25, 209, 1)" stroke-width="1.5"></path><path d="M550.16 665.68L541.62 493.97" stroke="rgba(135, 25, 209, 1)" stroke-width="1.5"></path><path d="M550.16 665.68L375.23 639.2" stroke="rgba(135, 25, 209, 1)" stroke-width="1.5"></path><path d="M550.16 665.68L694.61 559.14" stroke="rgba(135, 25, 209, 1)" stroke-width="1.5"></path><path d="M518.86 826.41L518.86 826.41" stroke="rgba(135, 25, 209, 1)" stroke-width="1.5"></path><path d="M518.86 826.41L375.23 639.2" stroke="rgba(135, 25, 209, 1)" stroke-width="1.5"></path><path d="M688.96 352.1L688.96 352.1" stroke="rgba(135, 25, 209, 1)" stroke-width="1.5"></path><path d="M688.96 352.1L824.28 371.81" stroke="rgba(135, 25, 209, 1)" stroke-width="1.5"></path><path d="M688.96 352.1L818 257.7" stroke="rgba(135, 25, 209, 1)" stroke-width="1.5"></path><path d="M688.96 352.1L794.09 517" stroke="rgba(135, 25, 209, 1)" stroke-width="1.5"></path><path d="M694.61 559.14L694.61 559.14" stroke="rgba(135, 25, 209, 1)" stroke-width="1.5"></path><path d="M694.61 559.14L701.27 641.85" stroke="rgba(135, 25, 209, 1)" stroke-width="1.5"></path><path d="M694.61 559.14L794.09 517" stroke="rgba(135, 25, 209, 1)" stroke-width="1.5"></path><path d="M694.61 559.14L829.26 638.26" stroke="rgba(135, 25, 209, 1)" stroke-width="1.5"></path><path d="M694.61 559.14L541.62 493.97" stroke="rgba(135, 25, 209, 1)" stroke-width="1.5"></path><path d="M701.27 641.85L701.27 641.85" stroke="rgba(135, 25, 209, 1)" stroke-width="1.5"></path><path d="M701.27 641.85L829.26 638.26" stroke="rgba(135, 25, 209, 1)" stroke-width="1.5"></path><path d="M818 257.7L818 257.7" stroke="rgba(135, 25, 209, 1)" stroke-width="1.5"></path><path d="M818 257.7L824.28 371.81" stroke="rgba(135, 25, 209, 1)" stroke-width="1.5"></path><path d="M818 257.7L982.28 252.75" stroke="rgba(135, 25, 209, 1)" stroke-width="1.5"></path><path d="M818 257.7L963.52 388.97" stroke="rgba(135, 25, 209, 1)" stroke-width="1.5"></path><path d="M824.28 371.81L824.28 371.81" stroke="rgba(135, 25, 209, 1)" stroke-width="1.5"></path><path d="M824.28 371.81L963.52 388.97" stroke="rgba(135, 25, 209, 1)" stroke-width="1.5"></path><path d="M824.28 371.81L794.09 517" stroke="rgba(135, 25, 209, 1)" stroke-width="1.5"></path><path d="M824.28 371.81L982.28 252.75" stroke="rgba(135, 25, 209, 1)" stroke-width="1.5"></path><path d="M794.09 517L794.09 517" stroke="rgba(135, 25, 209, 1)" stroke-width="1.5"></path><path d="M794.09 517L829.26 638.26" stroke="rgba(135, 25, 209, 1)" stroke-width="1.5"></path><path d="M794.09 517L701.27 641.85" stroke="rgba(135, 25, 209, 1)" stroke-width="1.5"></path><path d="M794.09 517L983.45 495.05" stroke="rgba(135, 25, 209, 1)" stroke-width="1.5"></path><path d="M829.26 638.26L829.26 638.26" stroke="rgba(135, 25, 209, 1)" stroke-width="1.5"></path><path d="M829.26 638.26L984.6 667.8" stroke="rgba(135, 25, 209, 1)" stroke-width="1.5"></path><path d="M829.26 638.26L983.45 495.05" stroke="rgba(135, 25, 209, 1)" stroke-width="1.5"></path><path d="M802.09 862.23L802.09 862.23" stroke="rgba(135, 25, 209, 1)" stroke-width="1.5"></path><path d="M802.09 862.23L973.98 831" stroke="rgba(135, 25, 209, 1)" stroke-width="1.5"></path><path d="M802.09 862.23L829.26 638.26" stroke="rgba(135, 25, 209, 1)" stroke-width="1.5"></path><path d="M1011.36 -79.99L1011.36 -79.99" stroke="rgba(135, 25, 209, 1)" stroke-width="1.5"></path><path d="M1011.36 -79.99L1094.21 -45.58" stroke="rgba(135, 25, 209, 1)" stroke-width="1.5"></path><path d="M1011.36 -79.99L958.47 58.36" stroke="rgba(135, 25, 209, 1)" stroke-width="1.5"></path><path d="M958.47 58.36L958.47 58.36" stroke="rgba(135, 25, 209, 1)" stroke-width="1.5"></path><path d="M958.47 58.36L1094.21 -45.58" stroke="rgba(135, 25, 209, 1)" stroke-width="1.5"></path><path d="M958.47 58.36L982.28 252.75" stroke="rgba(135, 25, 209, 1)" stroke-width="1.5"></path><path d="M958.47 58.36L1153.97 37.7" stroke="rgba(135, 25, 209, 1)" stroke-width="1.5"></path><path d="M958.47 58.36L1108.61 210.18" stroke="rgba(135, 25, 209, 1)" stroke-width="1.5"></path><path d="M958.47 58.36L818 257.7" stroke="rgba(135, 25, 209, 1)" stroke-width="1.5"></path><path d="M982.28 252.75L982.28 252.75" stroke="rgba(135, 25, 209, 1)" stroke-width="1.5"></path><path d="M982.28 252.75L1108.61 210.18" stroke="rgba(135, 25, 209, 1)" stroke-width="1.5"></path><path d="M982.28 252.75L963.52 388.97" stroke="rgba(135, 25, 209, 1)" stroke-width="1.5"></path><path d="M963.52 388.97L963.52 388.97" stroke="rgba(135, 25, 209, 1)" stroke-width="1.5"></path><path d="M963.52 388.97L983.45 495.05" stroke="rgba(135, 25, 209, 1)" stroke-width="1.5"></path><path d="M963.52 388.97L1150.3 368.2" stroke="rgba(135, 25, 209, 1)" stroke-width="1.5"></path><path d="M983.45 495.05L983.45 495.05" stroke="rgba(135, 25, 209, 1)" stroke-width="1.5"></path><path d="M983.45 495.05L1154.28 512.43" stroke="rgba(135, 25, 209, 1)" stroke-width="1.5"></path><path d="M984.6 667.8L984.6 667.8" stroke="rgba(135, 25, 209, 1)" stroke-width="1.5"></path><path d="M984.6 667.8L1101.99 690.08" stroke="rgba(135, 25, 209, 1)" stroke-width="1.5"></path><path d="M973.98 831L973.98 831" stroke="rgba(135, 25, 209, 1)" stroke-width="1.5"></path><path d="M973.98 831L1108.19 847.42" stroke="rgba(135, 25, 209, 1)" stroke-width="1.5"></path><path d="M973.98 831L984.6 667.8" stroke="rgba(135, 25, 209, 1)" stroke-width="1.5"></path><path d="M973.98 831L1101.99 690.08" stroke="rgba(135, 25, 209, 1)" stroke-width="1.5"></path><path d="M1094.21 -45.58L1094.21 -45.58" stroke="rgba(135, 25, 209, 1)" stroke-width="1.5"></path><path d="M1094.21 -45.58L1153.97 37.7" stroke="rgba(135, 25, 209, 1)" stroke-width="1.5"></path><path d="M1094.21 -45.58L1255.05 -56.55" stroke="rgba(135, 25, 209, 1)" stroke-width="1.5"></path><path d="M1153.97 37.7L1153.97 37.7" stroke="rgba(135, 25, 209, 1)" stroke-width="1.5"></path><path d="M1153.97 37.7L1278.67 47.62" stroke="rgba(135, 25, 209, 1)" stroke-width="1.5"></path><path d="M1153.97 37.7L1255.05 -56.55" stroke="rgba(135, 25, 209, 1)" stroke-width="1.5"></path><path d="M1153.97 37.7L1108.61 210.18" stroke="rgba(135, 25, 209, 1)" stroke-width="1.5"></path><path d="M1153.97 37.7L1011.36 -79.99" stroke="rgba(135, 25, 209, 1)" stroke-width="1.5"></path><path d="M1108.61 210.18L1108.61 210.18" stroke="rgba(135, 25, 209, 1)" stroke-width="1.5"></path><path d="M1150.3 368.2L1150.3 368.2" stroke="rgba(135, 25, 209, 1)" stroke-width="1.5"></path><path d="M1150.3 368.2L1256.1 378.99" stroke="rgba(135, 25, 209, 1)" stroke-width="1.5"></path><path d="M1150.3 368.2L1154.28 512.43" stroke="rgba(135, 25, 209, 1)" stroke-width="1.5"></path><path d="M1150.3 368.2L1108.61 210.18" stroke="rgba(135, 25, 209, 1)" stroke-width="1.5"></path><path d="M1154.28 512.43L1154.28 512.43" stroke="rgba(135, 25, 209, 1)" stroke-width="1.5"></path><path d="M1154.28 512.43L1269.31 523.32" stroke="rgba(135, 25, 209, 1)" stroke-width="1.5"></path><path d="M1101.99 690.08L1101.99 690.08" stroke="rgba(135, 25, 209, 1)" stroke-width="1.5"></path><path d="M1101.99 690.08L1108.19 847.42" stroke="rgba(135, 25, 209, 1)" stroke-width="1.5"></path><path d="M1101.99 690.08L1154.28 512.43" stroke="rgba(135, 25, 209, 1)" stroke-width="1.5"></path><path d="M1108.19 847.42L1108.19 847.42" stroke="rgba(135, 25, 209, 1)" stroke-width="1.5"></path><path d="M1108.19 847.42L1305.6 860.53" stroke="rgba(135, 25, 209, 1)" stroke-width="1.5"></path><path d="M1255.05 -56.55L1255.05 -56.55" stroke="rgba(135, 25, 209, 1)" stroke-width="1.5"></path><path d="M1255.05 -56.55L1278.67 47.62" stroke="rgba(135, 25, 209, 1)" stroke-width="1.5"></path><path d="M1255.05 -56.55L1435.76 -54.25" stroke="rgba(135, 25, 209, 1)" stroke-width="1.5"></path><path d="M1255.05 -56.55L1011.36 -79.99" stroke="rgba(135, 25, 209, 1)" stroke-width="1.5"></path><path d="M1255.05 -56.55L1454.39 95.63" stroke="rgba(135, 25, 209, 1)" stroke-width="1.5"></path><path d="M1278.67 47.62L1278.67 47.62" stroke="rgba(135, 25, 209, 1)" stroke-width="1.5"></path><path d="M1307.25 192.87L1307.25 192.87" stroke="rgba(135, 25, 209, 1)" stroke-width="1.5"></path><path d="M1307.25 192.87L1394.45 215.56" stroke="rgba(135, 25, 209, 1)" stroke-width="1.5"></path><path d="M1307.25 192.87L1278.67 47.62" stroke="rgba(135, 25, 209, 1)" stroke-width="1.5"></path><path d="M1307.25 192.87L1454.39 95.63" stroke="rgba(135, 25, 209, 1)" stroke-width="1.5"></path><path d="M1307.25 192.87L1256.1 378.99" stroke="rgba(135, 25, 209, 1)" stroke-width="1.5"></path><path d="M1307.25 192.87L1108.61 210.18" stroke="rgba(135, 25, 209, 1)" stroke-width="1.5"></path><path d="M1256.1 378.99L1256.1 378.99" stroke="rgba(135, 25, 209, 1)" stroke-width="1.5"></path><path d="M1256.1 378.99L1389.32 411.04" stroke="rgba(135, 25, 209, 1)" stroke-width="1.5"></path><path d="M1256.1 378.99L1269.31 523.32" stroke="rgba(135, 25, 209, 1)" stroke-width="1.5"></path><path d="M1256.1 378.99L1154.28 512.43" stroke="rgba(135, 25, 209, 1)" stroke-width="1.5"></path><path d="M1269.31 523.32L1269.31 523.32" stroke="rgba(135, 25, 209, 1)" stroke-width="1.5"></path><path d="M1269.31 523.32L1403.85 489.53" stroke="rgba(135, 25, 209, 1)" stroke-width="1.5"></path><path d="M1269.31 523.32L1389.32 411.04" stroke="rgba(135, 25, 209, 1)" stroke-width="1.5"></path><path d="M1269.31 523.32L1393.21 643.57" stroke="rgba(135, 25, 209, 1)" stroke-width="1.5"></path><path d="M1305.6 860.53L1305.6 860.53" stroke="rgba(135, 25, 209, 1)" stroke-width="1.5"></path><path d="M1305.6 860.53L1411.35 833.25" stroke="rgba(135, 25, 209, 1)" stroke-width="1.5"></path><path d="M1305.6 860.53L1393.21 643.57" stroke="rgba(135, 25, 209, 1)" stroke-width="1.5"></path><path d="M1305.6 860.53L1101.99 690.08" stroke="rgba(135, 25, 209, 1)" stroke-width="1.5"></path><path d="M1305.6 860.53L1587.69 792.97" stroke="rgba(135, 25, 209, 1)" stroke-width="1.5"></path><path d="M1435.76 -54.25L1435.76 -54.25" stroke="rgba(135, 25, 209, 1)" stroke-width="1.5"></path><path d="M1435.76 -54.25L1454.39 95.63" stroke="rgba(135, 25, 209, 1)" stroke-width="1.5"></path><path d="M1435.76 -54.25L1567.67 75.68" stroke="rgba(135, 25, 209, 1)" stroke-width="1.5"></path><path d="M1435.76 -54.25L1278.67 47.62" stroke="rgba(135, 25, 209, 1)" stroke-width="1.5"></path><path d="M1435.76 -54.25L1394.45 215.56" stroke="rgba(135, 25, 209, 1)" stroke-width="1.5"></path><path d="M1454.39 95.63L1454.39 95.63" stroke="rgba(135, 25, 209, 1)" stroke-width="1.5"></path><path d="M1454.39 95.63L1567.67 75.68" stroke="rgba(135, 25, 209, 1)" stroke-width="1.5"></path><path d="M1454.39 95.63L1394.45 215.56" stroke="rgba(135, 25, 209, 1)" stroke-width="1.5"></path><path d="M1394.45 215.56L1394.45 215.56" stroke="rgba(135, 25, 209, 1)" stroke-width="1.5"></path><path d="M1394.45 215.56L1389.32 411.04" stroke="rgba(135, 25, 209, 1)" stroke-width="1.5"></path><path d="M1394.45 215.56L1278.67 47.62" stroke="rgba(135, 25, 209, 1)" stroke-width="1.5"></path><path d="M1389.32 411.04L1389.32 411.04" stroke="rgba(135, 25, 209, 1)" stroke-width="1.5"></path><path d="M1389.32 411.04L1403.85 489.53" stroke="rgba(135, 25, 209, 1)" stroke-width="1.5"></path><path d="M1389.32 411.04L1592.54 490.86" stroke="rgba(135, 25, 209, 1)" stroke-width="1.5"></path><path d="M1389.32 411.04L1611.89 371.17" stroke="rgba(135, 25, 209, 1)" stroke-width="1.5"></path><path d="M1403.85 489.53L1403.85 489.53" stroke="rgba(135, 25, 209, 1)" stroke-width="1.5"></path><path d="M1403.85 489.53L1393.21 643.57" stroke="rgba(135, 25, 209, 1)" stroke-width="1.5"></path><path d="M1403.85 489.53L1256.1 378.99" stroke="rgba(135, 25, 209, 1)" stroke-width="1.5"></path><path d="M1403.85 489.53L1592.54 490.86" stroke="rgba(135, 25, 209, 1)" stroke-width="1.5"></path><path d="M1393.21 643.57L1393.21 643.57" stroke="rgba(135, 25, 209, 1)" stroke-width="1.5"></path><path d="M1393.21 643.57L1580.6 663.57" stroke="rgba(135, 25, 209, 1)" stroke-width="1.5"></path><path d="M1393.21 643.57L1411.35 833.25" stroke="rgba(135, 25, 209, 1)" stroke-width="1.5"></path><path d="M1393.21 643.57L1389.32 411.04" stroke="rgba(135, 25, 209, 1)" stroke-width="1.5"></path><path d="M1411.35 833.25L1411.35 833.25" stroke="rgba(135, 25, 209, 1)" stroke-width="1.5"></path><path d="M1411.35 833.25L1587.69 792.97" stroke="rgba(135, 25, 209, 1)" stroke-width="1.5"></path><path d="M1567.67 75.68L1567.67 75.68" stroke="rgba(135, 25, 209, 1)" stroke-width="1.5"></path><path d="M1567.67 75.68L1600.81 253.66" stroke="rgba(135, 25, 209, 1)" stroke-width="1.5"></path><path d="M1567.67 75.68L1394.45 215.56" stroke="rgba(135, 25, 209, 1)" stroke-width="1.5"></path><path d="M1567.67 75.68L1307.25 192.87" stroke="rgba(135, 25, 209, 1)" stroke-width="1.5"></path><path d="M1600.81 253.66L1600.81 253.66" stroke="rgba(135, 25, 209, 1)" stroke-width="1.5"></path><path d="M1600.81 253.66L1611.89 371.17" stroke="rgba(135, 25, 209, 1)" stroke-width="1.5"></path><path d="M1600.81 253.66L1394.45 215.56" stroke="rgba(135, 25, 209, 1)" stroke-width="1.5"></path><path d="M1600.81 253.66L1454.39 95.63" stroke="rgba(135, 25, 209, 1)" stroke-width="1.5"></path><path d="M1611.89 371.17L1611.89 371.17" stroke="rgba(135, 25, 209, 1)" stroke-width="1.5"></path><path d="M1611.89 371.17L1592.54 490.86" stroke="rgba(135, 25, 209, 1)" stroke-width="1.5"></path><path d="M1592.54 490.86L1592.54 490.86" stroke="rgba(135, 25, 209, 1)" stroke-width="1.5"></path><path d="M1592.54 490.86L1580.6 663.57" stroke="rgba(135, 25, 209, 1)" stroke-width="1.5"></path><path d="M1580.6 663.57L1580.6 663.57" stroke="rgba(135, 25, 209, 1)" stroke-width="1.5"></path><path d="M1580.6 663.57L1587.69 792.97" stroke="rgba(135, 25, 209, 1)" stroke-width="1.5"></path><path d="M1587.69 792.97L1587.69 792.97" stroke="rgba(135, 25, 209, 1)" stroke-width="1.5"></path><path d="M1587.69 792.97L1393.21 643.57" stroke="rgba(135, 25, 209, 1)" stroke-width="1.5"></path><circle r="5" cx="-43.02" cy="489.45" fill="rgba(135, 25, 209, 1)"></circle><circle r="5" cx="-39.61" cy="678.28" fill="rgba(135, 25, 209, 1)"></circle><circle r="5" cx="-45.42" cy="794.56" fill="rgba(135, 25, 209, 1)"></circle><circle r="5" cx="110.43" cy="524.11" fill="rgba(135, 25, 209, 1)"></circle><circle r="5" cx="46.49" cy="638.52" fill="rgba(135, 25, 209, 1)"></circle><circle r="5" cx="88.71" cy="854.89" fill="rgba(135, 25, 209, 1)"></circle><circle r="5" cx="232.74" cy="557.36" fill="rgba(135, 25, 209, 1)"></circle><circle r="5" cx="239.09" cy="694.13" fill="rgba(135, 25, 209, 1)"></circle><circle r="5" cx="230.05" cy="792.43" fill="rgba(135, 25, 209, 1)"></circle><circle r="5" cx="412.11" cy="409.86" fill="rgba(135, 25, 209, 1)"></circle><circle r="5" cx="397.18" cy="524.76" fill="rgba(135, 25, 209, 1)"></circle><circle r="5" cx="375.23" cy="639.2" fill="rgba(135, 25, 209, 1)"></circle><circle r="5" cx="410.5" cy="825.78" fill="rgba(135, 25, 209, 1)"></circle><circle r="5" cx="552.4" cy="337.59" fill="rgba(135, 25, 209, 1)"></circle><circle r="5" cx="541.62" cy="493.97" fill="rgba(135, 25, 209, 1)"></circle><circle r="5" cx="550.16" cy="665.68" fill="rgba(135, 25, 209, 1)"></circle><circle r="5" cx="518.86" cy="826.41" fill="rgba(135, 25, 209, 1)"></circle><circle r="5" cx="688.96" cy="352.1" fill="rgba(135, 25, 209, 1)"></circle><circle r="5" cx="694.61" cy="559.14" fill="rgba(135, 25, 209, 1)"></circle><circle r="5" cx="701.27" cy="641.85" fill="rgba(135, 25, 209, 1)"></circle><circle r="5" cx="818" cy="257.7" fill="rgba(135, 25, 209, 1)"></circle><circle r="5" cx="824.28" cy="371.81" fill="rgba(135, 25, 209, 1)"></circle><circle r="5" cx="794.09" cy="517" fill="rgba(135, 25, 209, 1)"></circle><circle r="5" cx="829.26" cy="638.26" fill="rgba(135, 25, 209, 1)"></circle><circle r="5" cx="802.09" cy="862.23" fill="rgba(135, 25, 209, 1)"></circle><circle r="5" cx="1011.36" cy="-79.99" fill="rgba(135, 25, 209, 1)"></circle><circle r="5" cx="958.47" cy="58.36" fill="rgba(135, 25, 209, 1)"></circle><circle r="5" cx="982.28" cy="252.75" fill="rgba(135, 25, 209, 1)"></circle><circle r="5" cx="963.52" cy="388.97" fill="rgba(135, 25, 209, 1)"></circle><circle r="5" cx="983.45" cy="495.05" fill="rgba(135, 25, 209, 1)"></circle><circle r="5" cx="984.6" cy="667.8" fill="rgba(135, 25, 209, 1)"></circle><circle r="5" cx="973.98" cy="831" fill="rgba(135, 25, 209, 1)"></circle><circle r="5" cx="1094.21" cy="-45.58" fill="rgba(135, 25, 209, 1)"></circle><circle r="5" cx="1153.97" cy="37.7" fill="rgba(135, 25, 209, 1)"></circle><circle r="5" cx="1108.61" cy="210.18" fill="rgba(135, 25, 209, 1)"></circle><circle r="5" cx="1150.3" cy="368.2" fill="rgba(135, 25, 209, 1)"></circle><circle r="5" cx="1154.28" cy="512.43" fill="rgba(135, 25, 209, 1)"></circle><circle r="5" cx="1101.99" cy="690.08" fill="rgba(135, 25, 209, 1)"></circle><circle r="5" cx="1108.19" cy="847.42" fill="rgba(135, 25, 209, 1)"></circle><circle r="5" cx="1255.05" cy="-56.55" fill="rgba(135, 25, 209, 1)"></circle><circle r="5" cx="1278.67" cy="47.62" fill="rgba(135, 25, 209, 1)"></circle><circle r="5" cx="1307.25" cy="192.87" fill="rgba(135, 25, 209, 1)"></circle><circle r="5" cx="1256.1" cy="378.99" fill="rgba(135, 25, 209, 1)"></circle><circle r="5" cx="1269.31" cy="523.32" fill="rgba(135, 25, 209, 1)"></circle><circle r="5" cx="1305.6" cy="860.53" fill="rgba(135, 25, 209, 1)"></circle><circle r="5" cx="1435.76" cy="-54.25" fill="rgba(135, 25, 209, 1)"></circle><circle r="5" cx="1454.39" cy="95.63" fill="rgba(135, 25, 209, 1)"></circle><circle r="5" cx="1394.45" cy="215.56" fill="rgba(135, 25, 209, 1)"></circle><circle r="5" cx="1389.32" cy="411.04" fill="rgba(135, 25, 209, 1)"></circle><circle r="5" cx="1403.85" cy="489.53" fill="rgba(135, 25, 209, 1)"></circle><circle r="5" cx="1393.21" cy="643.57" fill="rgba(135, 25, 209, 1)"></circle><circle r="5" cx="1411.35" cy="833.25" fill="rgba(135, 25, 209, 1)"></circle><circle r="5" cx="1567.67" cy="75.68" fill="rgba(135, 25, 209, 1)"></circle><circle r="5" cx="1600.81" cy="253.66" fill="rgba(135, 25, 209, 1)"></circle><circle r="5" cx="1611.89" cy="371.17" fill="rgba(135, 25, 209, 1)"></circle><circle r="5" cx="1592.54" cy="490.86" fill="rgba(135, 25, 209, 1)"></circle><circle r="5" cx="1580.6" cy="663.57" fill="rgba(135, 25, 209, 1)"></circle><circle r="5" cx="1587.69" cy="792.97" fill="rgba(135, 25, 209, 1)"></circle><path d="M57.04 705.51L57.04 705.51" stroke="hsl(132, 11.1%, 100%)" stroke-width="1.5"></path><path d="M57.04 705.51L66.46 802.58" stroke="hsl(132, 11.1%, 100%)" stroke-width="1.5"></path><path d="M57.04 705.51L196.45 701.85" stroke="hsl(132, 11.1%, 100%)" stroke-width="1.5"></path><path d="M57.04 705.51L59.65 560.77" stroke="hsl(132, 11.1%, 100%)" stroke-width="1.5"></path><path d="M57.04 705.51L-95.47 652.91" stroke="hsl(132, 11.1%, 100%)" stroke-width="1.5"></path><path d="M57.04 705.51L-40.45 856.64" stroke="hsl(132, 11.1%, 100%)" stroke-width="1.5"></path><path d="M57.04 705.51L195.46 823.92" stroke="hsl(132, 11.1%, 100%)" stroke-width="1.5"></path><path d="M811.16 847.64L811.16 847.64" stroke="hsl(132, 11.1%, 100%)" stroke-width="1.5"></path><path d="M811.16 847.64L690.89 840.7" stroke="hsl(132, 11.1%, 100%)" stroke-width="1.5"></path><path d="M811.16 847.64L1012.44 861.16" stroke="hsl(132, 11.1%, 100%)" stroke-width="1.5"></path><path d="M811.16 847.64L793.23 644.81" stroke="hsl(132, 11.1%, 100%)" stroke-width="1.5"></path><path d="M986.45 662.85L986.45 662.85" stroke="hsl(132, 11.1%, 100%)" stroke-width="1.5"></path><path d="M986.45 662.85L1109.16 646.63" stroke="hsl(132, 11.1%, 100%)" stroke-width="1.5"></path><path d="M986.45 662.85L1091.73 532.34" stroke="hsl(132, 11.1%, 100%)" stroke-width="1.5"></path><path d="M986.45 662.85L964.53 488.12" stroke="hsl(132, 11.1%, 100%)" stroke-width="1.5"></path><path d="M986.45 662.85L793.23 644.81" stroke="hsl(132, 11.1%, 100%)" stroke-width="1.5"></path><path d="M986.45 662.85L833.49 539.33" stroke="hsl(132, 11.1%, 100%)" stroke-width="1.5"></path><path d="M986.45 662.85L1012.44 861.16" stroke="hsl(132, 11.1%, 100%)" stroke-width="1.5"></path><path d="M1091.73 532.34L1091.73 532.34" stroke="hsl(132, 11.1%, 100%)" stroke-width="1.5"></path><path d="M1091.73 532.34L1109.16 646.63" stroke="hsl(132, 11.1%, 100%)" stroke-width="1.5"></path><path d="M1091.73 532.34L964.53 488.12" stroke="hsl(132, 11.1%, 100%)" stroke-width="1.5"></path><path d="M1244.43 47.67L1244.43 47.67" stroke="hsl(132, 11.1%, 100%)" stroke-width="1.5"></path><path d="M1244.43 47.67L1241.52 -54.61" stroke="hsl(132, 11.1%, 100%)" stroke-width="1.5"></path><path d="M1266.16 365.4L1266.16 365.4" stroke="hsl(132, 11.1%, 100%)" stroke-width="1.5"></path><path d="M1266.16 365.4L1114.3 355.65" stroke="hsl(132, 11.1%, 100%)" stroke-width="1.5"></path><path d="M1266.16 365.4L1311.92 519.55" stroke="hsl(132, 11.1%, 100%)" stroke-width="1.5"></path><path d="M1266.16 365.4L1262.55 197.65" stroke="hsl(132, 11.1%, 100%)" stroke-width="1.5"></path><path d="M1266.16 365.4L1153.45 229.89" stroke="hsl(132, 11.1%, 100%)" stroke-width="1.5"></path><path d="M1266.16 365.4L1445.23 352.31" stroke="hsl(132, 11.1%, 100%)" stroke-width="1.5"></path><path d="M1266.16 365.4L1445.23 226" stroke="hsl(132, 11.1%, 100%)" stroke-width="1.5"></path><path d="M1405.29 699.47L1405.29 699.47" stroke="hsl(132, 11.1%, 100%)" stroke-width="1.5"></path><path d="M1405.29 699.47L1401.41 831.16" stroke="hsl(132, 11.1%, 100%)" stroke-width="1.5"></path><path d="M1405.29 699.47L1273.59 673.4" stroke="hsl(132, 11.1%, 100%)" stroke-width="1.5"></path><path d="M1405.29 699.47L1550.81 650.01" stroke="hsl(132, 11.1%, 100%)" stroke-width="1.5"></path><path d="M1405.29 699.47L1437.9 538.52" stroke="hsl(132, 11.1%, 100%)" stroke-width="1.5"></path><path d="M-95.47 652.91L-95.47 652.91" stroke="hsl(132, 11.1%, 100%)" stroke-width="1.5"></path><path d="M-95.47 652.91L59.65 560.77" stroke="hsl(132, 11.1%, 100%)" stroke-width="1.5"></path><path d="M-40.45 856.64L-40.45 856.64" stroke="hsl(132, 11.1%, 100%)" stroke-width="1.5"></path><path d="M-40.45 856.64L66.46 802.58" stroke="hsl(132, 11.1%, 100%)" stroke-width="1.5"></path><path d="M-40.45 856.64L-95.47 652.91" stroke="hsl(132, 11.1%, 100%)" stroke-width="1.5"></path><path d="M-40.45 856.64L195.46 823.92" stroke="hsl(132, 11.1%, 100%)" stroke-width="1.5"></path><path d="M-40.45 856.64L196.45 701.85" stroke="hsl(132, 11.1%, 100%)" stroke-width="1.5"></path><path d="M-40.45 856.64L59.65 560.77" stroke="hsl(132, 11.1%, 100%)" stroke-width="1.5"></path><path d="M59.65 560.77L59.65 560.77" stroke="hsl(132, 11.1%, 100%)" stroke-width="1.5"></path><path d="M59.65 560.77L211.1 551.06" stroke="hsl(132, 11.1%, 100%)" stroke-width="1.5"></path><path d="M59.65 560.77L196.45 701.85" stroke="hsl(132, 11.1%, 100%)" stroke-width="1.5"></path><path d="M66.46 802.58L66.46 802.58" stroke="hsl(132, 11.1%, 100%)" stroke-width="1.5"></path><path d="M66.46 802.58L195.46 823.92" stroke="hsl(132, 11.1%, 100%)" stroke-width="1.5"></path><path d="M66.46 802.58L196.45 701.85" stroke="hsl(132, 11.1%, 100%)" stroke-width="1.5"></path><path d="M66.46 802.58L-95.47 652.91" stroke="hsl(132, 11.1%, 100%)" stroke-width="1.5"></path><path d="M211.1 551.06L211.1 551.06" stroke="hsl(132, 11.1%, 100%)" stroke-width="1.5"></path><path d="M211.1 551.06L196.45 701.85" stroke="hsl(132, 11.1%, 100%)" stroke-width="1.5"></path><path d="M211.1 551.06L344.74 677.65" stroke="hsl(132, 11.1%, 100%)" stroke-width="1.5"></path><path d="M211.1 551.06L57.04 705.51" stroke="hsl(132, 11.1%, 100%)" stroke-width="1.5"></path><path d="M211.1 551.06L195.46 823.92" stroke="hsl(132, 11.1%, 100%)" stroke-width="1.5"></path><path d="M196.45 701.85L196.45 701.85" stroke="hsl(132, 11.1%, 100%)" stroke-width="1.5"></path><path d="M196.45 701.85L195.46 823.92" stroke="hsl(132, 11.1%, 100%)" stroke-width="1.5"></path><path d="M195.46 823.92L195.46 823.92" stroke="hsl(132, 11.1%, 100%)" stroke-width="1.5"></path><path d="M195.46 823.92L357.18 846.13" stroke="hsl(132, 11.1%, 100%)" stroke-width="1.5"></path><path d="M195.46 823.92L344.74 677.65" stroke="hsl(132, 11.1%, 100%)" stroke-width="1.5"></path><path d="M344.74 677.65L344.74 677.65" stroke="hsl(132, 11.1%, 100%)" stroke-width="1.5"></path><path d="M344.74 677.65L196.45 701.85" stroke="hsl(132, 11.1%, 100%)" stroke-width="1.5"></path><path d="M344.74 677.65L357.18 846.13" stroke="hsl(132, 11.1%, 100%)" stroke-width="1.5"></path><path d="M344.74 677.65L502.58 859.75" stroke="hsl(132, 11.1%, 100%)" stroke-width="1.5"></path><path d="M357.18 846.13L357.18 846.13" stroke="hsl(132, 11.1%, 100%)" stroke-width="1.5"></path><path d="M357.18 846.13L502.58 859.75" stroke="hsl(132, 11.1%, 100%)" stroke-width="1.5"></path><path d="M357.18 846.13L196.45 701.85" stroke="hsl(132, 11.1%, 100%)" stroke-width="1.5"></path><path d="M357.18 846.13L66.46 802.58" stroke="hsl(132, 11.1%, 100%)" stroke-width="1.5"></path><path d="M357.18 846.13L638.48 685.96" stroke="hsl(132, 11.1%, 100%)" stroke-width="1.5"></path><path d="M502.58 859.75L502.58 859.75" stroke="hsl(132, 11.1%, 100%)" stroke-width="1.5"></path><path d="M502.58 859.75L690.89 840.7" stroke="hsl(132, 11.1%, 100%)" stroke-width="1.5"></path><path d="M699.37 550.58L699.37 550.58" stroke="hsl(132, 11.1%, 100%)" stroke-width="1.5"></path><path d="M699.37 550.58L793.23 644.81" stroke="hsl(132, 11.1%, 100%)" stroke-width="1.5"></path><path d="M699.37 550.58L833.49 539.33" stroke="hsl(132, 11.1%, 100%)" stroke-width="1.5"></path><path d="M699.37 550.58L638.48 685.96" stroke="hsl(132, 11.1%, 100%)" stroke-width="1.5"></path><path d="M699.37 550.58L829.77 408.65" stroke="hsl(132, 11.1%, 100%)" stroke-width="1.5"></path><path d="M638.48 685.96L638.48 685.96" stroke="hsl(132, 11.1%, 100%)" stroke-width="1.5"></path><path d="M638.48 685.96L793.23 644.81" stroke="hsl(132, 11.1%, 100%)" stroke-width="1.5"></path><path d="M638.48 685.96L690.89 840.7" stroke="hsl(132, 11.1%, 100%)" stroke-width="1.5"></path><path d="M690.89 840.7L690.89 840.7" stroke="hsl(132, 11.1%, 100%)" stroke-width="1.5"></path><path d="M690.89 840.7L793.23 644.81" stroke="hsl(132, 11.1%, 100%)" stroke-width="1.5"></path><path d="M829.77 408.65L829.77 408.65" stroke="hsl(132, 11.1%, 100%)" stroke-width="1.5"></path><path d="M829.77 408.65L833.49 539.33" stroke="hsl(132, 11.1%, 100%)" stroke-width="1.5"></path><path d="M829.77 408.65L964.53 488.12" stroke="hsl(132, 11.1%, 100%)" stroke-width="1.5"></path><path d="M829.77 408.65L993.64 405.75" stroke="hsl(132, 11.1%, 100%)" stroke-width="1.5"></path><path d="M833.49 539.33L833.49 539.33" stroke="hsl(132, 11.1%, 100%)" stroke-width="1.5"></path><path d="M833.49 539.33L793.23 644.81" stroke="hsl(132, 11.1%, 100%)" stroke-width="1.5"></path><path d="M833.49 539.33L964.53 488.12" stroke="hsl(132, 11.1%, 100%)" stroke-width="1.5"></path><path d="M833.49 539.33L993.64 405.75" stroke="hsl(132, 11.1%, 100%)" stroke-width="1.5"></path><path d="M793.23 644.81L793.23 644.81" stroke="hsl(132, 11.1%, 100%)" stroke-width="1.5"></path><path d="M993.64 405.75L993.64 405.75" stroke="hsl(132, 11.1%, 100%)" stroke-width="1.5"></path><path d="M993.64 405.75L964.53 488.12" stroke="hsl(132, 11.1%, 100%)" stroke-width="1.5"></path><path d="M993.64 405.75L1114.3 355.65" stroke="hsl(132, 11.1%, 100%)" stroke-width="1.5"></path><path d="M993.64 405.75L1091.73 532.34" stroke="hsl(132, 11.1%, 100%)" stroke-width="1.5"></path><path d="M964.53 488.12L964.53 488.12" stroke="hsl(132, 11.1%, 100%)" stroke-width="1.5"></path><path d="M1012.44 861.16L1012.44 861.16" stroke="hsl(132, 11.1%, 100%)" stroke-width="1.5"></path><path d="M1012.44 861.16L1098.42 860.93" stroke="hsl(132, 11.1%, 100%)" stroke-width="1.5"></path><path d="M1012.44 861.16L1109.16 646.63" stroke="hsl(132, 11.1%, 100%)" stroke-width="1.5"></path><path d="M1012.44 861.16L1255.62 828.09" stroke="hsl(132, 11.1%, 100%)" stroke-width="1.5"></path><path d="M1153.45 229.89L1153.45 229.89" stroke="hsl(132, 11.1%, 100%)" stroke-width="1.5"></path><path d="M1153.45 229.89L1262.55 197.65" stroke="hsl(132, 11.1%, 100%)" stroke-width="1.5"></path><path d="M1153.45 229.89L1114.3 355.65" stroke="hsl(132, 11.1%, 100%)" stroke-width="1.5"></path><path d="M1114.3 355.65L1114.3 355.65" stroke="hsl(132, 11.1%, 100%)" stroke-width="1.5"></path><path d="M1109.16 646.63L1109.16 646.63" stroke="hsl(132, 11.1%, 100%)" stroke-width="1.5"></path><path d="M1109.16 646.63L1273.59 673.4" stroke="hsl(132, 11.1%, 100%)" stroke-width="1.5"></path><path d="M1098.42 860.93L1098.42 860.93" stroke="hsl(132, 11.1%, 100%)" stroke-width="1.5"></path><path d="M1098.42 860.93L1255.62 828.09" stroke="hsl(132, 11.1%, 100%)" stroke-width="1.5"></path><path d="M1241.52 -54.61L1241.52 -54.61" stroke="hsl(132, 11.1%, 100%)" stroke-width="1.5"></path><path d="M1241.52 -54.61L1412.19 -79.13" stroke="hsl(132, 11.1%, 100%)" stroke-width="1.5"></path><path d="M1241.52 -54.61L1441.85 45.57" stroke="hsl(132, 11.1%, 100%)" stroke-width="1.5"></path><path d="M1241.52 -54.61L1262.55 197.65" stroke="hsl(132, 11.1%, 100%)" stroke-width="1.5"></path><path d="M1241.52 -54.61L1153.45 229.89" stroke="hsl(132, 11.1%, 100%)" stroke-width="1.5"></path><path d="M1262.55 197.65L1262.55 197.65" stroke="hsl(132, 11.1%, 100%)" stroke-width="1.5"></path><path d="M1262.55 197.65L1244.43 47.67" stroke="hsl(132, 11.1%, 100%)" stroke-width="1.5"></path><path d="M1311.92 519.55L1311.92 519.55" stroke="hsl(132, 11.1%, 100%)" stroke-width="1.5"></path><path d="M1311.92 519.55L1437.9 538.52" stroke="hsl(132, 11.1%, 100%)" stroke-width="1.5"></path><path d="M1311.92 519.55L1273.59 673.4" stroke="hsl(132, 11.1%, 100%)" stroke-width="1.5"></path><path d="M1311.92 519.55L1405.29 699.47" stroke="hsl(132, 11.1%, 100%)" stroke-width="1.5"></path><path d="M1311.92 519.55L1445.23 352.31" stroke="hsl(132, 11.1%, 100%)" stroke-width="1.5"></path><path d="M1273.59 673.4L1273.59 673.4" stroke="hsl(132, 11.1%, 100%)" stroke-width="1.5"></path><path d="M1255.62 828.09L1255.62 828.09" stroke="hsl(132, 11.1%, 100%)" stroke-width="1.5"></path><path d="M1255.62 828.09L1401.41 831.16" stroke="hsl(132, 11.1%, 100%)" stroke-width="1.5"></path><path d="M1255.62 828.09L1273.59 673.4" stroke="hsl(132, 11.1%, 100%)" stroke-width="1.5"></path><path d="M1255.62 828.09L1405.29 699.47" stroke="hsl(132, 11.1%, 100%)" stroke-width="1.5"></path><path d="M1255.62 828.09L1109.16 646.63" stroke="hsl(132, 11.1%, 100%)" stroke-width="1.5"></path><path d="M1412.19 -79.13L1412.19 -79.13" stroke="hsl(132, 11.1%, 100%)" stroke-width="1.5"></path><path d="M1412.19 -79.13L1441.85 45.57" stroke="hsl(132, 11.1%, 100%)" stroke-width="1.5"></path><path d="M1412.19 -79.13L1556.43 -40.49" stroke="hsl(132, 11.1%, 100%)" stroke-width="1.5"></path><path d="M1412.19 -79.13L1244.43 47.67" stroke="hsl(132, 11.1%, 100%)" stroke-width="1.5"></path><path d="M1412.19 -79.13L1445.23 226" stroke="hsl(132, 11.1%, 100%)" stroke-width="1.5"></path><path d="M1441.85 45.57L1441.85 45.57" stroke="hsl(132, 11.1%, 100%)" stroke-width="1.5"></path><path d="M1441.85 45.57L1556.43 -40.49" stroke="hsl(132, 11.1%, 100%)" stroke-width="1.5"></path><path d="M1441.85 45.57L1445.23 226" stroke="hsl(132, 11.1%, 100%)" stroke-width="1.5"></path><path d="M1445.23 226L1445.23 226" stroke="hsl(132, 11.1%, 100%)" stroke-width="1.5"></path><path d="M1445.23 226L1445.23 352.31" stroke="hsl(132, 11.1%, 100%)" stroke-width="1.5"></path><path d="M1445.23 226L1593.76 193.25" stroke="hsl(132, 11.1%, 100%)" stroke-width="1.5"></path><path d="M1445.23 226L1564.17 365.68" stroke="hsl(132, 11.1%, 100%)" stroke-width="1.5"></path><path d="M1445.23 226L1262.55 197.65" stroke="hsl(132, 11.1%, 100%)" stroke-width="1.5"></path><path d="M1445.23 352.31L1445.23 352.31" stroke="hsl(132, 11.1%, 100%)" stroke-width="1.5"></path><path d="M1445.23 352.31L1564.17 365.68" stroke="hsl(132, 11.1%, 100%)" stroke-width="1.5"></path><path d="M1437.9 538.52L1437.9 538.52" stroke="hsl(132, 11.1%, 100%)" stroke-width="1.5"></path><path d="M1401.41 831.16L1401.41 831.16" stroke="hsl(132, 11.1%, 100%)" stroke-width="1.5"></path><path d="M1401.41 831.16L1591.88 789.32" stroke="hsl(132, 11.1%, 100%)" stroke-width="1.5"></path><path d="M1401.41 831.16L1273.59 673.4" stroke="hsl(132, 11.1%, 100%)" stroke-width="1.5"></path><path d="M1556.43 -40.49L1556.43 -40.49" stroke="hsl(132, 11.1%, 100%)" stroke-width="1.5"></path><path d="M1556.43 -40.49L1593.76 193.25" stroke="hsl(132, 11.1%, 100%)" stroke-width="1.5"></path><path d="M1556.43 -40.49L1445.23 226" stroke="hsl(132, 11.1%, 100%)" stroke-width="1.5"></path><path d="M1593.76 193.25L1593.76 193.25" stroke="hsl(132, 11.1%, 100%)" stroke-width="1.5"></path><path d="M1593.76 193.25L1564.17 365.68" stroke="hsl(132, 11.1%, 100%)" stroke-width="1.5"></path><path d="M1593.76 193.25L1441.85 45.57" stroke="hsl(132, 11.1%, 100%)" stroke-width="1.5"></path><path d="M1593.76 193.25L1445.23 352.31" stroke="hsl(132, 11.1%, 100%)" stroke-width="1.5"></path><path d="M1564.17 365.68L1564.17 365.68" stroke="hsl(132, 11.1%, 100%)" stroke-width="1.5"></path><path d="M1564.17 365.68L1601.05 517.51" stroke="hsl(132, 11.1%, 100%)" stroke-width="1.5"></path><path d="M1564.17 365.68L1437.9 538.52" stroke="hsl(132, 11.1%, 100%)" stroke-width="1.5"></path><path d="M1564.17 365.68L1550.81 650.01" stroke="hsl(132, 11.1%, 100%)" stroke-width="1.5"></path><path d="M1601.05 517.51L1601.05 517.51" stroke="hsl(132, 11.1%, 100%)" stroke-width="1.5"></path><path d="M1601.05 517.51L1550.81 650.01" stroke="hsl(132, 11.1%, 100%)" stroke-width="1.5"></path><path d="M1601.05 517.51L1437.9 538.52" stroke="hsl(132, 11.1%, 100%)" stroke-width="1.5"></path><path d="M1601.05 517.51L1445.23 352.31" stroke="hsl(132, 11.1%, 100%)" stroke-width="1.5"></path><path d="M1601.05 517.51L1405.29 699.47" stroke="hsl(132, 11.1%, 100%)" stroke-width="1.5"></path><path d="M1601.05 517.51L1591.88 789.32" stroke="hsl(132, 11.1%, 100%)" stroke-width="1.5"></path><path d="M1550.81 650.01L1550.81 650.01" stroke="hsl(132, 11.1%, 100%)" stroke-width="1.5"></path><path d="M1550.81 650.01L1591.88 789.32" stroke="hsl(132, 11.1%, 100%)" stroke-width="1.5"></path><path d="M1591.88 789.32L1591.88 789.32" stroke="hsl(132, 11.1%, 100%)" stroke-width="1.5"></path><path d="M1591.88 789.32L1405.29 699.47" stroke="hsl(132, 11.1%, 100%)" stroke-width="1.5"></path><circle r="25" cx="57.04" cy="705.51" fill="url(#SvgjsRadialGradient1585)"></circle><circle r="25" cx="811.16" cy="847.64" fill="url(#SvgjsRadialGradient1585)"></circle><circle r="25" cx="986.45" cy="662.85" fill="url(#SvgjsRadialGradient1585)"></circle><circle r="25" cx="1091.73" cy="532.34" fill="url(#SvgjsRadialGradient1585)"></circle><circle r="25" cx="1244.43" cy="47.67" fill="url(#SvgjsRadialGradient1585)"></circle><circle r="25" cx="1266.16" cy="365.4" fill="url(#SvgjsRadialGradient1585)"></circle><circle r="25" cx="1405.29" cy="699.47" fill="url(#SvgjsRadialGradient1585)"></circle><circle r="5" cx="-95.47" cy="652.91" fill="#f3f5f3"></circle><circle r="5" cx="-40.45" cy="856.64" fill="#f3f5f3"></circle><circle r="5" cx="59.65" cy="560.77" fill="#f3f5f3"></circle><circle r="5" cx="66.46" cy="802.58" fill="#f3f5f3"></circle><circle r="5" cx="211.1" cy="551.06" fill="#f3f5f3"></circle><circle r="5" cx="196.45" cy="701.85" fill="#f3f5f3"></circle><circle r="5" cx="195.46" cy="823.92" fill="#f3f5f3"></circle><circle r="5" cx="344.74" cy="677.65" fill="#f3f5f3"></circle><circle r="5" cx="357.18" cy="846.13" fill="#f3f5f3"></circle><circle r="5" cx="502.58" cy="859.75" fill="#f3f5f3"></circle><circle r="5" cx="699.37" cy="550.58" fill="#f3f5f3"></circle><circle r="5" cx="638.48" cy="685.96" fill="#f3f5f3"></circle><circle r="5" cx="690.89" cy="840.7" fill="#f3f5f3"></circle><circle r="5" cx="829.77" cy="408.65" fill="#f3f5f3"></circle><circle r="5" cx="833.49" cy="539.33" fill="#f3f5f3"></circle><circle r="5" cx="793.23" cy="644.81" fill="#f3f5f3"></circle><circle r="5" cx="993.64" cy="405.75" fill="#f3f5f3"></circle><circle r="5" cx="964.53" cy="488.12" fill="#f3f5f3"></circle><circle r="5" cx="1012.44" cy="861.16" fill="#f3f5f3"></circle><circle r="5" cx="1153.45" cy="229.89" fill="#f3f5f3"></circle><circle r="5" cx="1114.3" cy="355.65" fill="#f3f5f3"></circle><circle r="5" cx="1109.16" cy="646.63" fill="#f3f5f3"></circle><circle r="5" cx="1098.42" cy="860.93" fill="#f3f5f3"></circle><circle r="5" cx="1241.52" cy="-54.61" fill="#f3f5f3"></circle><circle r="5" cx="1262.55" cy="197.65" fill="#f3f5f3"></circle><circle r="5" cx="1311.92" cy="519.55" fill="#f3f5f3"></circle><circle r="5" cx="1273.59" cy="673.4" fill="#f3f5f3"></circle><circle r="5" cx="1255.62" cy="828.09" fill="#f3f5f3"></circle><circle r="5" cx="1412.19" cy="-79.13" fill="#f3f5f3"></circle><circle r="5" cx="1441.85" cy="45.57" fill="#f3f5f3"></circle><circle r="5" cx="1445.23" cy="226" fill="#f3f5f3"></circle><circle r="5" cx="1445.23" cy="352.31" fill="#f3f5f3"></circle><circle r="5" cx="1437.9" cy="538.52" fill="#f3f5f3"></circle><circle r="5" cx="1401.41" cy="831.16" fill="#f3f5f3"></circle><circle r="5" cx="1556.43" cy="-40.49" fill="#f3f5f3"></circle><circle r="5" cx="1593.76" cy="193.25" fill="#f3f5f3"></circle><circle r="5" cx="1564.17" cy="365.68" fill="#f3f5f3"></circle><circle r="5" cx="1601.05" cy="517.51" fill="#f3f5f3"></circle><circle r="5" cx="1550.81" cy="650.01" fill="#f3f5f3"></circle><circle r="5" cx="1591.88" cy="789.32" fill="#f3f5f3"></circle></g><defs><mask id="SvgjsMask1584"><rect width="1441" height="700" fill="#ffffff"></rect></mask><radialGradient id="SvgjsRadialGradient1585"><stop stop-color="#ffffff" offset="0.1"></stop><stop stop-color="rgba(230, 235, 231, 1)" offset="0.2"></stop><stop stop-color="rgba(230, 235, 231, 0)" offset="1"></stop></radialGradient></defs></svg>